/* XPM */
static char *_7fe6ee84ab24e43d7c6a647359a6793EvplK7rZHZTl8QKN[] = {
/* columns rows colors chars-per-pixel */
"64 64 9 1 ",
"  c None",
". c #1C1618",
"X c #201B1B",
"o c gray13",
"O c #3D3232",
"+ c #D03516",
"@ c #E57722",
"# c #EFC537",
"$ c #F4ED5E",
/* pixels */
"                                                                ",
"                                                                ",
"                                                                ",
"                                                                ",
"                                                                ",
"                                                                ",
"                                   +                            ",
"                                   +                            ",
"                                  ++                            ",
"                                 +@+                            ",
"                  XXX      +    +@@              o              ",
"                 ..X     +++  ++@#+              oo             ",
"                ...X     +@+  +@#@+    +         ooo            ",
"               .....X   +#O@++@$#++   +@        XXooo           ",
"              .......X +@Oo@@#$#++   +@+        XXXoo           ",
"              .......++#Oo+@#$#@O+  +@#+       XXXXXoo          ",
"             ........+#Oo++#$@+OO+++@#+      XXXXXXXXo          ",
"            ...... .+@Ooo+@#$+Oo+@+@#$+     XXXX..XXXXX         ",
"          .......  .+@#oo@#$+Oo++#@#$@    ..XXXX. .XXXXo        ",
"         .......   +@#$o@#$+OooO@$#$@    ..XXXX.   .XXXXoo      ",
"        ...X...X X+@@$Oo@#+Ooo++#@#@@  ...XXXXX     XXXXXoo     ",
"       ...X....XXX+@#Oo+#++ooo+@@+@++....XXXXX       XXoXXX  o  ",
"     X... ...  ..X+@Ooo+@+oo++##+ ++...+.XXXX       o XooXo Xo  ",
"     XX. X..    .X +ooXX+ooo+#@++ooooo.@..XXX      oooXXoooXoo  ",
"     XX  XX.   .X  +oXXooOo+@@+oooooo+@#o...X      ooXX XooXoo  ",
"     XX  XX    X    OoooOoo+@+ooooX+oo+#Ooo..      oo   XooXoo  ",
"      XX XX        oOoooOooo+oooXXX@ooooOOOo.       o    oo oo  ",
"          XX      .X#OoO##oo+XXXXX+@oooooOOoo        o   oo oo  ",
"                 +.XX$o$XXXXXXXXXXX#oooXooOOo            oo oo  ",
"              .  .+XoXoXoO@+XXXXXXXXooo+XXoooo       OO oo   o  ",
"             .. .X+@OooOO#+O...XXXXXXo+@+ooooOoo      OO    o   ",
"            .. ..X+@O@#$O$oo.......XXXoo@oXoooOOo      O        ",
"           ..X XX+X+@#$$$Oo.......XXXXXXXoXXoooOOo OO  OO       ",
"          ..XX.XX..X+O+@Oo........XXXXXXXXX XXoooo+OOOOOO       ",
"         ...XXX....+ooOo+o .......XXXXXXXX   XXoo+@@ooooOO      ",
"         ..XXXXX..   oooo   ........XXXXXX    XX+@#o+ooooO      ",
"        ...XXXXXX            ...........Xo     X@#ooo+oooO      ",
"        ..XXXXXXX           ...........XXo     ++ooooooooo      ",
"        ..XXXXXX.           .....XXX..XXoo     Xoooooooooo      ",
"        .XXXXXX.           ....XXXXXXXXooo    XXoooo+oooO       ",
"        .XXXXXX.          ...XXXXXXXXXoooo    XXooo+@oooO       ",
"        .XXXXX.           ..XXXXX+XXXXXoo     XXoo+@#ooO        ",
"        .XXXX..            .XX@Xo@+oXoXoo     XXoooo#+O         ",
"       XXXXX.X            ..XXXoooXX+oXooX     Xo+oooOO         ",
"       XXXXXXX           ..XXXo+oXX@+XXXXX  + Xooooo+O          ",
"      XXXXXXXXX         ..XXXo@@+X#@XXoXX   @+oo+ooo@           ",
"      XX.X..XXXX       ...X@Xo#XXooXXX+XX  +#ooo+oooo           ",
"     XX..X....XX      ...XXXXXXX++XXooXX  +@oXXXo@ooo+O         ",
"     XX. X.. XXX       ..XXXXX@#@XX+ooXX  +oX  Xo@+oo+O         ",
"     XX. X. XXX       ..XX+XX+#$.XX@+oXX  oo   Xo#XXo@+         ",
"     XX. ...XX       ...X@.XX@..XXX#@X+X  ooX Xoo@ XXo#O        ",
"      XX ...         ..XXXX@XXXX+@X.#X@X   oX Xoo+ XXo@+        ",
"      XXX ...      ...XX@X@#XX+X##+XXXX@X     oo+  Xoo+         ",
"                   ..XX+.@#.XX##$$.XX+X#X    ooO   ooO+         ",
"                  ..+XXXXXXXX#$$$#.XX@XXX    oO    ooO          ",
"                  .X@XX@#XXX##$$#XXX#@XXX.        ooO           ",
"                ...@XX+#$XX@#$$#.X$X$#X.@.        oO            ",
"                ......@#X.+#$#..X$#XXX.@+.X                     ",
"                .....@@........X##@....+...X                    ",
"                 ...............@@..........                    ",
"                    .................                           ",
"                                                                ",
"                                                                ",
"                                                                "
};
