/* XPM */
static char *result[] = {
/* columns rows colors chars-per-pixel */
"64 64 239 2 ",
"   c #111E08",
".  c #14230C",
"X  c #18220C",
"o  c #162B0E",
"O  c #1A2B0D",
"+  c #15320E",
"@  c #18350F",
"#  c #172710",
"$  c #162C11",
"%  c #1B2D12",
"&  c #163412",
"*  c #1A3413",
"=  c #153B14",
"-  c #193B15",
";  c #1D3618",
":  c #1C3B19",
">  c #232E0F",
",  c #222E15",
"<  c #223513",
"1  c #233C14",
"2  c #2A3B17",
"3  c #223419",
"4  c #223B1A",
"5  c #2F3A24",
"6  c #154315",
"7  c #1B4315",
"8  c #144B16",
"9  c #1A4B16",
"0  c #164518",
"q  c #1C431A",
"w  c #154C19",
"e  c #1B4B1A",
"r  c #145216",
"t  c #1B5217",
"y  c #185C16",
"u  c #14541A",
"i  c #1C541C",
"p  c #135C1B",
"a  c #1B5B1C",
"s  c #244215",
"d  c #254518",
"f  c #2B441A",
"g  c #254C1C",
"h  c #2B4C1C",
"j  c #314215",
"k  c #37481B",
"l  c #324C1C",
"z  c #23541C",
"x  c #29531A",
"c  c #235C1C",
"v  c #2B5B1E",
"b  c #33531D",
"n  c #37581B",
"m  c #0F651A",
"M  c #0E6819",
"N  c #12641C",
"B  c #1C641D",
"V  c #156A1D",
"C  c #1B6B1D",
"Z  c #1C711F",
"A  c #23641E",
"S  c #29651E",
"D  c #236B1D",
"F  c #34681E",
"G  c #2B731E",
"H  c #1E4E20",
"J  c #1A5C20",
"K  c #2D4820",
"L  c #354925",
"P  c #3B4E22",
"I  c #295523",
"U  c #235C22",
"Y  c #2C5D23",
"T  c #355727",
"R  c #3C5322",
"E  c #355B23",
"W  c #3A5D23",
"Q  c #166721",
"!  c #1B6521",
"~  c #156C20",
"^  c #1B6D22",
"/  c #1D7323",
"(  c #1F7629",
")  c #236523",
"_  c #2B6526",
"`  c #236C22",
"'  c #2A6C24",
"]  c #346526",
"[  c #3C6324",
"{  c #3B6B24",
"}  c #3C6529",
"|  c #3D6C2C",
" . c #227524",
".. c #2A7324",
"X. c #257A25",
"o. c #2C7B25",
"O. c #29732A",
"+. c #257C2A",
"@. c #297E2B",
"#. c #387527",
"$. c #34762B",
"%. c #327B2C",
"&. c #3A7C2C",
"*. c #3E6830",
"=. c #3A7931",
"-. c #465B1E",
";. c #4F681B",
":. c #556E1D",
">. c #657D1E",
",. c #414F22",
"<. c #4A5D23",
"1. c #465A29",
"2. c #485932",
"3. c #476727",
"4. c #436D2A",
"5. c #566A27",
"6. c #44732B",
"7. c #46772A",
"8. c #5A7529",
"9. c #4C6935",
"0. c #546932",
"q. c #477732",
"w. c #4B7C34",
"e. c #577B33",
"r. c #637C23",
"t. c #667B28",
"y. c #647A2B",
"u. c #667935",
"i. c #2C8026",
"p. c #2C832B",
"a. c #338027",
"s. c #32852C",
"d. c #3B832D",
"f. c #358A2D",
"g. c #3B8B2D",
"h. c #3D902F",
"j. c #2C8331",
"k. c #338631",
"l. c #388631",
"z. c #348931",
"x. c #3B8E32",
"c. c #3D9132",
"v. c #65851E",
"b. c #42832D",
"n. c #49862D",
"m. c #54852C",
"M. c #46942E",
"N. c #458333",
"B. c #4B8434",
"V. c #438D33",
"C. c #4B8C34",
"Z. c #4B8839",
"A. c #518133",
"S. c #5A8736",
"D. c #538A34",
"F. c #538B39",
"G. c #449434",
"H. c #4B9435",
"J. c #459933",
"K. c #4B9B34",
"L. c #449639",
"P. c #4B9439",
"I. c #4B9B39",
"U. c #539334",
"Y. c #599534",
"T. c #529A36",
"R. c #5B9A35",
"E. c #54943A",
"W. c #5A9539",
"Q. c #539C3A",
"!. c #5C9C3B",
"~. c #678123",
"^. c #678623",
"/. c #6C842B",
"(. c #738E23",
"). c #738C2C",
"_. c #7E9D24",
"`. c #789428",
"'. c #6C8333",
"]. c #678538",
"[. c #738C36",
"{. c #629D3C",
"}. c #7A9637",
"|. c #53A336",
" X c #52A53A",
".X c #54A43B",
"XX c #5BA43C",
"oX c #59A83A",
"OX c #5BAB3D",
"+X c #64A63D",
"@X c #63AB3D",
"#X c #64B23E",
"$X c #6BB33E",
"%X c #6EBB3F",
"&X c #70BD3F",
"*X c #589C40",
"=X c #789541",
"-X c #5CAC41",
";X c #63AC41",
":X c #6BAC41",
">X c #64B242",
",X c #6BB442",
"<X c #67B841",
"1X c #6CBB41",
"2X c #809F1E",
"3X c #85A71E",
"4X c #8AAD1D",
"5X c #8EB31E",
"6X c #91B61E",
"7X c #94BA1F",
"8X c #809F24",
"9X c #819E2C",
"0X c #819B38",
"qX c #85A525",
"wX c #87A922",
"eX c #8AAC23",
"rX c #85A32C",
"tX c #88A72C",
"yX c #8CAC2B",
"uX c #8EB222",
"iX c #92B523",
"pX c #95BB22",
"aX c #99BE24",
"sX c #92B42B",
"dX c #96B92B",
"fX c #99BD29",
"gX c #87A534",
"hX c #8CAB33",
"jX c #91AE38",
"kX c #94B434",
"lX c #98B937",
"zX c #9CC126",
"xX c #9EC329",
"cX c #9EC132",
"vX c #A1C62B",
"bX c #A3C92D",
"nX c #A4C733",
"mX c #809740",
"MX c #86B146",
/* pixels */
"5X5X6X7XzXzXbXbXbXbXzX7X7X7X7X7X7XzXbXbXzX7X7X7X7X7X7X7X7X7X6X4X4X6X7X7X6X5X6X7XaXzXxXzXaXaXxXbXzXaX6X5X4X4X4X6X6X7X5X4X4X5X7X7X",
"5X6X6X7XzXzXbXbXbXbXzX7X7X7X7X7X7X7XvXvXzX7X7X7X7X7X7X7X7X7X6X4X4X4X7X7X5X6X7X7XaXzXfXzX7XaXxXvXzXaX6X5X4X4X5X6X7X7X6X4X4X5X7X7X",
"6X6X6X7XpXzXzXxXbXbXzXzXzX7XzXzXzXzXzXxX7X6X6X6X7X7X7X7X7X6X6X4X4X6X6X6X6X7X7X7XaXaXzXzXaXaXzXaX7X7X6X5X5X5X6X7X7X7X6X5X5X6X7X7X",
"7X7X6X6X6X7XpXzXzXxXbXbXzXzX7XzXvXvXaX7X7X4X4X5X6X7X7X7X7X6X4X4X4X4X5X6X6X6XiX6X6X7XaXaXxXfXpXiX6X5X6X6X7X7X7X7X7X7X7X6X5X7X7X7X",
"7X6X6X6X6X6X7XzXzXxXvXvXzX7X7XbXbXvX7X7X5X4X4XuX6X6XiX6X6X5X4X4XeXeXqX_._.8X8X8X9XyXdXaXxXaXiX6X6X6XiX6X7X7X7X7X7X7X7X7X6X6X7X7X",
"6X6X6X7X7X6X6X6XaXaXxXnXzX7X7XzXbXxX7X6X5XwXwXwXeX4XeXeXtXeXrXrXqX9X'.8.5.0.5.5.u.=X9XsXdXaXaXiX6X6X7X6X6X6X7X7X7X7X7X7X6X6X6X6X",
"6X6X6X7X7X6X6X6XiXpXzXxXzXiX7XzXvXxXiXiX4XqX`.).).'.'.'.'.u.u.u.u.0.1.2.9.9.9.9.9.0.u.mXhXsXdXiX7X7XiXiX6XiX7X7X7X7X7X7X7X7X6X5X",
"6X6X7X7X6X6X5X6X7XiXpXfXpXiXiXpXvXfXpXiXyX}.8.R R 3.9.9.9.2.2.5 5 5 T =.F.W.W.F.w.T T 9.u.[.}.0XgXgXtXsXdX7X7X7X7X7X7XaXaX7X6X6X",
"7X7X7X7X7X6X6X5XiXsXhXjXlXlXlXlXlXjXjXMX0X0.l 9 y { 7.C.B.q.P < X % v &.M.M.G.K.V.=._ I L T 2.9.8.e.].}.jXkXiX7X7X7XzXvXvXaX7X7X",
"aXaXaX7X7X6X6XuXtX[.].[.=XMXMX=X[.u.].u.0.L 7 r D b.Q.Q.P.C.6.h , * i ..o.o.i.f.z.s.O._ I q 5 K E 6.m.].}.}.rXsX7X7XpXxXzXaX7X7X",
"zXzXzX7X7XpX6XrX'.5.3.e.W.:X,X*XS.e.9.R 2 ; = r S %.l.s.%.d.N.6.h - r B B C Z /  ./ ` ! i 0 d g _ &.H.E.E.e.u.}.sXiXpXpXzX7X7X7X",
"bXbXzX7X4X_.(.~.3.9.S.E.R.XX+X+X+X{.W.| 2 O + 6 y B A A ) ..&.&.] z r r N N N V V Q a e 0 : : q c D o.V.E.F.w.e.0XyXuX5X6X7X7X7X",
"bXbXxXzX_.:.F n { F.Q.K.g.g.M.K.|.oX|.7.g @ 1 z c S c z 9 i ) $.' Y e 9 y p B ^ ` ` c g h s 1 7 t a C o.V.P.N.q.u.[.tXuX6X6X6X6X",
"xXxXxXzX`.-.s x $.V.V.i.X. .G i.f.M.H.b._ x } w.n.D.7.] g q i J ! U e 0 t a ' &.V.C.N.q.7.6.{ _ U i a ^ @.z.l.=.| 5.'.rXiX7X6X6X",
"xXxXxXyXr.b 7 9 S @.X.! V M M Z Z ..d.b.7.n.W.;X;X;X;Xe.} g q e J H e g v { N.U.Q.Q.P.F.E.E.F.=._ z u a ^  .X.` U I <.).eX5X6X5X",
"zXzXiX`.-.4 - - e U a u u y m V B C ` d.T.XX;X-X-X.X-X!.e.} g q 0 w 0 I ] w.B.B.B.d.%.@.g.G.x.=.' a 8 r p B C V a q K 5.8XuX5X5X",
"pXpXiX^.k ; * * @ 7 6 6 8 r p ^ ` B D %.K.oXoX|.J.J.J.|.W.B.W g : 0 0 K ] 6.| ] v c B D ......) J 8 6 8 r u m m p 8 q 3.).eXuX5X",
"pXpXeXv.n < * O 1 - s 7 z c S $.%.' B ..a.h.J.c.x.z.h.J.T.W.B.E q - = s K b g s 7 s c S ' A z e 0 - @ 6 6 8 8 u u 8 q 1.}.yX6X6X",
"pXuX_.5.l < < j n 3.[ { { &.n.U.T.d...^ / p.p.z.j.z.z.z.G.T.U.| z 7 6 - 7 q 1 @ 1 g { b.b.{ x 7 7 @ @ 6 = = 8 w 8 8 = 1.}.sXiX7X",
"pXwXm.n < * 1 3.Y.R.U.T.T.XX+X@X;XI.%.^ ~ ( +.+.+.+.p.p.s.x.K.V._ e 0 - - : f b n 6.F.XXXXW.4.b f - @ @ = & = = 6 = = 3.}.dXiXaX",
"pXqX:.2 O % j w.;X>X|.M.|.OX@XOXOXL.@.! Q Q ^ ^ ~ ^ ^ ~ Z i.g.x.O.J w 7 9 x ;.D.W.!.;X>X;X;X{.e.3.d * @ = = : = & @ 3 2.0XdXfXvX",
"pXeX:.2 O < W Y.;X-XM.f.f.b.g.d.&.$.) a u Q N m m m Q Q V C  .X./ Q u 9 x F M.@X,X>X|.K.|.OX:X{.w.l * & = 6 7 & o O 3 2.0XlXvXvX",
"zXyX:.2 O 1 7.{.Q.G.%.' D A c y i t 0 0 0 w u p m m Q N p y u p N N C G #.n.R.OX.X XJ.M.|.oX$X@Xm.[ 1 $ & 0 8 7 @ o , 2.mXlXvXvX",
"vXkX).k 2 b B.P.s.` B t 9 @ = @ & & & * * & = 6 w u u u w 8 8 w u N D b.R.@XOX.XG.c.h.J.|.oXoXoX{.m.R d = 0 a S v h L 9.=XjXcXnX",
"nXnXgXt.3.7.P.l.^ p w - * O @ 2 1 1 1 1 1 1 1 * & = = 6 6 = 0 0 6 u D M.oX$X+XK.x.f.f.f.c.c.h.M.H.E.w.T d e ) %.b.B.B.w.u.=XMXcX",
"bXnXjX'.3.N.x.X.B u 6 * * 1 n 6.6.6.6.6.6.3.} l * * & & * = = = 0 r D g.|.|.I.g.f.p.p.X.X.X. . .%.x.Z.| I e z S %.C.P.N.*.9.}.kX",
"nXlX0X8.] #.@.V p 6 & * s [ m.{.+XR.{.Y.W.W.D.6.W P d - - = = 6 8 u B o.g.x.s.p.+.+. .^ Z V V V C G @.' H 0 9 z S ..a.$.U W u.hX",
"cXgXy.n z ! ! J 8 & * f } D.+X,X$X@XXXR.Q.T.T.U.D.B.} x q = = 8 p p V C /  ./  .X./ ^ V N M N N p V B ! J i 9 9 t c ` B a E e.tX",
"hX/.n d 9 u p u = & s 3.F.XX@X>X@X.XI.G.V.V.M.G.Q.Q.F.| I q 0 8 u m p m N V V V V V m m m m p p r u p N N A c v z U H i w I e.tX",
"_.5.s = 6 u w 6 - 4 } F.*XQ.I.J.J.G.x.s.s.p.@.i.d.V.F.Z.} g 0 0 8 8 u m p m N m m m p p p p p u 6 8 r u C ..d.7.7.| Y e - h 8.tX",
"}.3.1 = 6 8 6 = 3 K w.Q.L.z.p.p.i.s.p.p.+.( ^ B B ' #.| Y g = = = 8 8 8 r p y p p p u 8 r w 6 0 = - 0 B O.G..XOX!.F.9.E f f y.9X",
"`.<.< & = = = & ; K B.L.k./ ~ C / X.X.X.~ Q N u 6 9 g 7 q - = = = = = 6 6 8 u r u 6 = = & = = * * - 0 U =.G.I.I.*X*X*XZ.3.R u.gX",
"`.-.< @ @ = & @ $ h =.s./ V M V V C Z ! J J 8 6 = = + + + + & & = = = = = 6 0 6 - @ < 1 1 1 1 % O @ - 0 U ' ..i.i.c.L.Q.w.9.].gX",
"`.;.2 @ & - * ; * s S Z Z N N N m N N u w w = o o $ O @ @ @ * * $ & - = - = - * @ j F 3.6.6.} K 2 < < 7 9 t B B / +.z.c.k.=.W.}.",
"yXt.k > o o @ 1 - 9 y V V p u u r r r 6 6 * O o O < h n n n b f * * - - = * ; ; l 6.Y.XX|.T.D.7.3.n F [ [ ] ) B V ~ ( X.O.O.w.}.",
"sX0X-.> . o @ @ 9 i a N J u 0 6 6 6 6 = & * > 1 l { A.U.R.R.D.6.E h 4 - @ - g b 6.Y.@X#X|.K.H.T.R.{.Y.{.W.C.#.' V B V C ~ ! ] S.",
"iX9X5.> . + @ x v G ) a t q - - & * * & @ < j 3.m.R.@X$X1X<X<X+XD.q.T 1 * s v #.C..XOXOX Xc.c. X@X$X<X>XOX.XP.&.` N N V V J U e.",
"iX9X:.> O @ t G n.M.%.) 0 * ; 1 1 * O O @ d F Y.@X$X&X&X&X&X1X1X$X+Xw.P s s Y $.l.c.G.K.c.c.c.I.OX#X<XOX X-XQ.C.&.! J p p a T e.",
"eX9X5.> + 9 F M.@XXXN.Y 1 1 l F n l 1 < s F Y.@X%X%X&X&X&X1X1X<X,X,X;Xe.W h I ) / / +.p.j.z.j.c.J.oXoX XL.L.-XQ.H.#.U a u i 4.).",
"eX`.;.2 s F M.@X#X-XU.#.n F w.W.R.B.3.n ;.Y.@X$X%X&X&X&X&X<X<X-XOX#X>X{.A.} Y ! V C ~ ( +.p.p.p.z.G.I.c.z.x.L.-X!.B.Y e w c e._.",
"qXr.n s n n.XXOXoX|.|.R.U.T.OX>X$X@X!.Y.{.$X$X>X<X%X&X&X1X<X-XL.K. XoX-X*XF.N.$.! p V V ~ ~ ~ / @.s.f.g.f.z.G..XXXU.{ g 6 h m.eX",
"_.;.s s ] C.Q.G.J.K.OX%X,X>XoX.XoXOX>X,X,X>XoX|.oX#X%X&X1X-XI.x.f.c.c.I.-X*XE.=.z u p m m m M V Z X.p.p.f.s.z.G.|.!.B.v s n >.eX",
"8X;.s 9 v %.s.g.J. X>X<X>X.Xc.j.z.V.L.H.K.L.c.h.|.#X1X1X<X-XI.x.f.f.f.h.x.c.=.] 0 8 r p m m m m V  .+.p.p.p.k.G.OX@XQ.#.E 5.`.iX",
"8X;.s @ r D %.K.oX XOXOXI.z.O.^ ! ^  . .X.o.p.f.J. X-X-X-X Xc.z.j.j.k.k.k.k.=.I : = 8 u u u u m B ^ ( +.+.+.k.I.-X-XQ.7.[ 8._.6X",
"3X;.s = 9 D b.oX-XI.c.x.j.( Q p w u p m V Z p.f.c.c.J.J.c.z.j.j.j.j.j.p.j.j.O.I 6 = = 6 8 w u p m V V ~ ~ ( p.c. X|.G.#.Y 3.(.6X",
"2X;.s - r D c.OXI.s.X. .^ Q p 8 6 8 p m V C X.p.z.f.h.p.p.j.( ( ( ( ( +.p.p.( J 9 = = = 6 8 u p m m m V m C / i.f.f.f.o._ F v.eX",
"8X;.s = 8 D f.c.z. .Q V Q p r 6 6 8 u m M C / p.p.p.p.p.i.~ ~ ~ ~ ~ ~ / ( ( ~ Q e 7 = = 6 8 p m m m m m N N V C / X.@. .D F v.uX",
"8X;.s 7 w N / X.^ ~ m Q p w 8 = 6 8 p m m M C  .p.p.p.i.( ~ ~ m M M M ~ M ~ Q J u 0 = = 8 u p m p m m m M N N N B / Z Z B F m.wX",
"8X;.1 @ 8 y p m N N p u u 0 6 = = 8 r m m m m ~ ( +.@.+./ ~ M m Q m m m m m m J w 0 = = 6 w u m m m m m m N N p N Q Q Q p F v.wX",
"8X;.s = 6 r u p p p r 8 6 = - = = 8 r m m m m m ~ ~ ( ( ~ Q M m m m m m m m m p u 0 0 0 = 6 w u y m m m m N p u J p m m u v m.eX",
"eX:.j @ = 6 8 r 8 w 8 6 = = & - = 6 8 p m m m m m ~ m Q m m m m m m m m m m m p u 0 = = = = 0 w u p p m p p p a p m p p 8 n v.4X",
"dX^.k * = = = 6 6 w 6 = = & & & & = 8 u p m m m m m m m m m m m m m m m m m N u 0 0 = & & = = 0 w r u r u u u u p p p u 8 x v.wX",
"nXhX5.3 * & @ = = : = = = & $ & & = 0 8 u p m m m m m m m m m m m m m m m m p u 0 = & $ $ & = = 6 6 6 6 6 8 e u u u 8 6 7 x v.3X",
"nXkXy.k O * - = = = = = ; & # $ * = = 6 w u u m m m m m m m m m m m m m m p u w 0 & & $ $ & = = = = 6 = 6 @ : - 6 6 6 = 7 -.v.4X",
"xXdX`.<.3 * * = = & - = ; % # % * = = = 6 0 u p m m m m m m m m m m m m p p w 6 = = $ $ $ & = = = = = = = - @ $ $ & = : l 5.2X6X",
"6XiXtXy.j * * - = = & = & ; % $ $ = - = = 6 6 r p p m m m m m m m m p u u w 6 = & & $ . $ & = = = = = = = @ * O o & * 1 -.(.eX6X",
"eX5XuX).<.3 * < = = = = & ; $ # $ * ; - = = = 8 r p p p p p p p p u u w = = = = * $ . . $ & = = = = = = ; % % X # $ 2 1.y.8XiX6X",
"4X4X5XrXt.,.2 3 & ; & ; = = ; $ # , ; - - = = 6 6 w w w 8 u 8 w w 6 0 = = = & & % X   . $ & = = & = - - ; 3 3 3 2 K <./.9XeX6X4X",
"5XiXiXdXrXt.,.5 K 4 * * ; ; ; % , 3 3 ; * & = = = 6 = 6 6 6 6 = = = = & = ; : ; , X X # & & = & & = ; ; K L 1.5.5.y.`.eXiXiXpXpX",
"fXpXxXvXfXrX).5.3.1.L , % , 2 5 1.,.L 3 * * ; = - = ; - - = - - = & = = ; ; 5 L P , X > $ & $ ; * % * f 1.u.(._.8XqXsX7XaXaXxXvX",
"vXvXvXbXfXdXqX8X`.).5.k 2 j <.r.).).5.,.j 3 ; 4 : : 4 : 4 4 4 4 : 3 3 4 4 L 0.u.t.-.2 2 k 2 j j 2 j k -./.qXqX3X5X7X7X7XaXzXvXbX",
"aXfXfXvXzXaX6X5X5XuX`.>.>.>.(.8XsXyX9X/.y.<.P P P P P P P R R P P P P 1.9.].`.rXtX(.>.>.>.v.>.>.r.>.v.(.qX5X4X4X4X6X7X7X7XaXzXzX",
"7X7XfXvXfXaX5X6X6X5XeX3X4XeX4XiXiX7XeXtX9X).~.~.~.>.r.r.~.v.~.~./.t./.).gXkXdXdXpXuXuXuXfXsXiXeXuXuXuXuX7X5X4X4X4X6X6X6X7XzX7X7X",
"7X7XaXvXzXpX5X5X5X5X5X6X6X6X7X7X7X7X7X6XiXeX4XeX4X3X2X_.qX4X4XeXuXyXsXkXvXvXxXiX7X7XpXzXbXvXfXpX6XpX7X6X7X6X4X4X4X6X6X7X7X7X7X7X"
};
